<?xml version="1.0" encoding="UTF-8" standalone="no"?>
<!-- Created with Inkscape (http://www.inkscape.org/) -->

<svg
   xmlns:dc="http://purl.org/dc/elements/1.1/"
   xmlns:cc="http://creativecommons.org/ns#"
   xmlns:rdf="http://www.w3.org/1999/02/22-rdf-syntax-ns#"
   xmlns:svg="http://www.w3.org/2000/svg"
   xmlns="http://www.w3.org/2000/svg"
   xmlns:xlink="http://www.w3.org/1999/xlink"
   xmlns:sodipodi="http://sodipodi.sourceforge.net/DTD/sodipodi-0.dtd"
   xmlns:inkscape="http://www.inkscape.org/namespaces/inkscape"
   width="293.13"
   height="341.80713"
   id="svg3250"
   version="1.1"
   inkscape:version="0.48.2 r9819"
   sodipodi:docname="android-qgis-first_run_icon.svg"
   inkscape:export-filename="/home/marco/Desktop/android-qgis.png"
   inkscape:export-xdpi="90"
   inkscape:export-ydpi="90">
  <defs
     id="defs3252">
    <filter
       color-interpolation-filters="sRGB"
       id="filter3758">
      <feGaussianBlur
         id="feGaussianBlur3760"
         stdDeviation="18.017176"
         inkscape:collect="always" />
    </filter>
    <linearGradient
       x1="366.99615"
       y1="519.32886"
       x2="390.26273"
       y2="542.59546"
       id="linearGradient3746"
       xlink:href="#linearGradient4372"
       gradientUnits="userSpaceOnUse" />
    <linearGradient
       id="linearGradient4372">
      <stop
         id="stop4374"
         style="stop-color:#000000;stop-opacity:0"
         offset="0" />
      <stop
         id="stop4376"
         style="stop-color:#000000;stop-opacity:1"
         offset="1" />
    </linearGradient>
    <linearGradient
       x1="360.26965"
       y1="512.60236"
       x2="338.59592"
       y2="490.92865"
       id="linearGradient3743"
       xlink:href="#linearGradient4332"
       gradientUnits="userSpaceOnUse" />
    <linearGradient
       id="linearGradient4332">
      <stop
         id="stop4334"
         style="stop-color:#ffffff;stop-opacity:0"
         offset="0" />
      <stop
         id="stop4336"
         style="stop-color:#ffffff;stop-opacity:1"
         offset="1" />
    </linearGradient>
    <filter
       color-interpolation-filters="sRGB"
       id="filter4307">
      <feGaussianBlur
         id="feGaussianBlur4309"
         stdDeviation="14.907261"
         inkscape:collect="always" />
    </filter>
    <linearGradient
       x1="681.18219"
       y1="222.01881"
       x2="716.77515"
       y2="233.57816"
       id="linearGradient3739"
       xlink:href="#linearGradient4372"
       gradientUnits="userSpaceOnUse" />
    <linearGradient
       id="linearGradient3126">
      <stop
         id="stop3128"
         style="stop-color:#000000;stop-opacity:0"
         offset="0" />
      <stop
         id="stop3130"
         style="stop-color:#000000;stop-opacity:1"
         offset="1" />
    </linearGradient>
    <linearGradient
       x1="615.06274"
       y1="263.63245"
       x2="594.70856"
       y2="284.43924"
       id="linearGradient3736"
       xlink:href="#linearGradient4372"
       gradientUnits="userSpaceOnUse" />
    <linearGradient
       id="linearGradient3133">
      <stop
         id="stop3135"
         style="stop-color:#000000;stop-opacity:0"
         offset="0" />
      <stop
         id="stop3137"
         style="stop-color:#000000;stop-opacity:1"
         offset="1" />
    </linearGradient>
    <linearGradient
       x1="615.06274"
       y1="207.22287"
       x2="606.26788"
       y2="180.4052"
       id="linearGradient3733"
       xlink:href="#linearGradient4332"
       gradientUnits="userSpaceOnUse" />
    <linearGradient
       id="linearGradient3140">
      <stop
         id="stop3142"
         style="stop-color:#ffffff;stop-opacity:0"
         offset="0" />
      <stop
         id="stop3144"
         style="stop-color:#ffffff;stop-opacity:1"
         offset="1" />
    </linearGradient>
    <filter
       color-interpolation-filters="sRGB"
       id="filter4769">
      <feGaussianBlur
         id="feGaussianBlur4771"
         stdDeviation="2.1619459"
         inkscape:collect="always" />
    </filter>
    <linearGradient
       x1="85.076729"
       y1="750.43225"
       x2="82.30249"
       y2="774.01331"
       id="linearGradient3728"
       xlink:href="#linearGradient4372"
       gradientUnits="userSpaceOnUse" />
    <linearGradient
       id="linearGradient3149">
      <stop
         id="stop3151"
         style="stop-color:#000000;stop-opacity:0"
         offset="0" />
      <stop
         id="stop3153"
         style="stop-color:#000000;stop-opacity:1"
         offset="1" />
    </linearGradient>
    <linearGradient
       x1="79.355019"
       y1="745.80927"
       x2="71.980286"
       y2="725.46484"
       id="linearGradient3725"
       xlink:href="#linearGradient4332"
       gradientUnits="userSpaceOnUse" />
    <linearGradient
       id="linearGradient3156">
      <stop
         id="stop3158"
         style="stop-color:#ffffff;stop-opacity:0"
         offset="0" />
      <stop
         id="stop3160"
         style="stop-color:#ffffff;stop-opacity:1"
         offset="1" />
    </linearGradient>
    <linearGradient
       x1="145.93681"
       y1="773.5517"
       x2="175.55196"
       y2="783.26154"
       id="linearGradient3722"
       xlink:href="#linearGradient4372"
       gradientUnits="userSpaceOnUse" />
    <linearGradient
       id="linearGradient3163">
      <stop
         id="stop3165"
         style="stop-color:#000000;stop-opacity:0"
         offset="0" />
      <stop
         id="stop3167"
         style="stop-color:#000000;stop-opacity:1"
         offset="1" />
    </linearGradient>
    <linearGradient
       x1="136.22697"
       y1="800.83173"
       x2="112.20677"
       y2="804.06836"
       id="linearGradient3719"
       xlink:href="#linearGradient4372"
       gradientUnits="userSpaceOnUse" />
    <linearGradient
       id="linearGradient3170">
      <stop
         id="stop3172"
         style="stop-color:#000000;stop-opacity:0"
         offset="0" />
      <stop
         id="stop3174"
         style="stop-color:#000000;stop-opacity:1"
         offset="1" />
    </linearGradient>
    <filter
       color-interpolation-filters="sRGB"
       id="filter5295">
      <feGaussianBlur
         id="feGaussianBlur5297"
         stdDeviation="5.6385285"
         inkscape:collect="always" />
    </filter>
    <filter
       color-interpolation-filters="sRGB"
       id="filter5284">
      <feGaussianBlur
         id="feGaussianBlur5286"
         stdDeviation="5.925"
         inkscape:collect="always" />
    </filter>
    <filter
       color-interpolation-filters="sRGB"
       height="1.3792491"
       y="-0.18962456"
       width="1.4404087"
       x="-0.22020435"
       id="filter3432">
      <feGaussianBlur
         id="feGaussianBlur3434"
         stdDeviation="11.161022"
         inkscape:collect="always" />
    </filter>
    <linearGradient
       x1="360.26965"
       y1="512.60236"
       x2="338.59592"
       y2="490.92865"
       id="linearGradient5493"
       xlink:href="#linearGradient4332"
       gradientUnits="userSpaceOnUse" />
    <linearGradient
       id="linearGradient3183">
      <stop
         id="stop3185"
         style="stop-color:#ffffff;stop-opacity:0"
         offset="0" />
      <stop
         id="stop3187"
         style="stop-color:#ffffff;stop-opacity:1"
         offset="1" />
    </linearGradient>
    <linearGradient
       x1="366.99615"
       y1="519.32886"
       x2="390.26273"
       y2="542.59546"
       id="linearGradient5525"
       xlink:href="#linearGradient4372"
       gradientUnits="userSpaceOnUse" />
    <linearGradient
       id="linearGradient3190">
      <stop
         id="stop3192"
         style="stop-color:#000000;stop-opacity:0"
         offset="0" />
      <stop
         id="stop3194"
         style="stop-color:#000000;stop-opacity:1"
         offset="1" />
    </linearGradient>
    <linearGradient
       x1="681.18219"
       y1="222.01881"
       x2="716.77515"
       y2="233.57816"
       id="linearGradient5474"
       xlink:href="#linearGradient4372"
       gradientUnits="userSpaceOnUse" />
    <linearGradient
       id="linearGradient3197">
      <stop
         id="stop3199"
         style="stop-color:#000000;stop-opacity:0"
         offset="0" />
      <stop
         id="stop3201"
         style="stop-color:#000000;stop-opacity:1"
         offset="1" />
    </linearGradient>
    <linearGradient
       x1="615.06274"
       y1="263.63245"
       x2="594.70856"
       y2="284.43924"
       id="linearGradient5471"
       xlink:href="#linearGradient4372"
       gradientUnits="userSpaceOnUse" />
    <linearGradient
       id="linearGradient3204">
      <stop
         id="stop3206"
         style="stop-color:#000000;stop-opacity:0"
         offset="0" />
      <stop
         id="stop3208"
         style="stop-color:#000000;stop-opacity:1"
         offset="1" />
    </linearGradient>
    <linearGradient
       x1="615.06274"
       y1="207.22287"
       x2="606.26788"
       y2="180.4052"
       id="linearGradient5468"
       xlink:href="#linearGradient4332"
       gradientUnits="userSpaceOnUse" />
    <linearGradient
       id="linearGradient3211">
      <stop
         id="stop3213"
         style="stop-color:#ffffff;stop-opacity:0"
         offset="0" />
      <stop
         id="stop3215"
         style="stop-color:#ffffff;stop-opacity:1"
         offset="1" />
    </linearGradient>
    <filter
       color-interpolation-filters="sRGB"
       id="filter3217">
      <feGaussianBlur
         id="feGaussianBlur3219"
         stdDeviation="2.1619459"
         inkscape:collect="always" />
    </filter>
    <filter
       color-interpolation-filters="sRGB"
       id="filter3758-5">
      <feGaussianBlur
         id="feGaussianBlur3760-6"
         stdDeviation="18.017176"
         inkscape:collect="always" />
    </filter>
    <linearGradient
       x1="366.99615"
       y1="519.32886"
       x2="390.26273"
       y2="542.59546"
       id="linearGradient3746-7"
       xlink:href="#linearGradient4372-7"
       gradientUnits="userSpaceOnUse" />
    <linearGradient
       id="linearGradient4372-7">
      <stop
         id="stop4374-4"
         style="stop-color:#000000;stop-opacity:0"
         offset="0" />
      <stop
         id="stop4376-0"
         style="stop-color:#000000;stop-opacity:1"
         offset="1" />
    </linearGradient>
    <linearGradient
       x1="360.26965"
       y1="512.60236"
       x2="338.59592"
       y2="490.92865"
       id="linearGradient3743-6"
       xlink:href="#linearGradient4332-4"
       gradientUnits="userSpaceOnUse" />
    <linearGradient
       id="linearGradient4332-4">
      <stop
         id="stop4334-7"
         style="stop-color:#ffffff;stop-opacity:0"
         offset="0" />
      <stop
         id="stop4336-4"
         style="stop-color:#ffffff;stop-opacity:1"
         offset="1" />
    </linearGradient>
    <filter
       color-interpolation-filters="sRGB"
       id="filter4307-8">
      <feGaussianBlur
         id="feGaussianBlur4309-5"
         stdDeviation="14.907261"
         inkscape:collect="always" />
    </filter>
    <linearGradient
       x1="681.18219"
       y1="222.01881"
       x2="716.77515"
       y2="233.57816"
       id="linearGradient3739-8"
       xlink:href="#linearGradient4372-7"
       gradientUnits="userSpaceOnUse" />
    <linearGradient
       id="linearGradient3641">
      <stop
         id="stop3643"
         style="stop-color:#000000;stop-opacity:0"
         offset="0" />
      <stop
         id="stop3645"
         style="stop-color:#000000;stop-opacity:1"
         offset="1" />
    </linearGradient>
    <linearGradient
       x1="615.06274"
       y1="263.63245"
       x2="594.70856"
       y2="284.43924"
       id="linearGradient3736-2"
       xlink:href="#linearGradient4372-7"
       gradientUnits="userSpaceOnUse" />
    <linearGradient
       id="linearGradient3648">
      <stop
         id="stop3650"
         style="stop-color:#000000;stop-opacity:0"
         offset="0" />
      <stop
         id="stop3652"
         style="stop-color:#000000;stop-opacity:1"
         offset="1" />
    </linearGradient>
    <linearGradient
       x1="615.06274"
       y1="207.22287"
       x2="606.26788"
       y2="180.4052"
       id="linearGradient3733-6"
       xlink:href="#linearGradient4332-4"
       gradientUnits="userSpaceOnUse" />
    <linearGradient
       id="linearGradient3655">
      <stop
         id="stop3657"
         style="stop-color:#ffffff;stop-opacity:0"
         offset="0" />
      <stop
         id="stop3659"
         style="stop-color:#ffffff;stop-opacity:1"
         offset="1" />
    </linearGradient>
    <filter
       color-interpolation-filters="sRGB"
       id="filter4769-0">
      <feGaussianBlur
         id="feGaussianBlur4771-6"
         stdDeviation="2.1619459"
         inkscape:collect="always" />
    </filter>
    <linearGradient
       x1="85.076729"
       y1="750.43225"
       x2="82.30249"
       y2="774.01331"
       id="linearGradient3728-6"
       xlink:href="#linearGradient4372-7"
       gradientUnits="userSpaceOnUse" />
    <linearGradient
       id="linearGradient3664">
      <stop
         id="stop3666"
         style="stop-color:#000000;stop-opacity:0"
         offset="0" />
      <stop
         id="stop3668"
         style="stop-color:#000000;stop-opacity:1"
         offset="1" />
    </linearGradient>
    <linearGradient
       x1="79.355019"
       y1="745.80927"
       x2="71.980286"
       y2="725.46484"
       id="linearGradient3725-4"
       xlink:href="#linearGradient4332-4"
       gradientUnits="userSpaceOnUse" />
    <linearGradient
       id="linearGradient3671">
      <stop
         id="stop3673"
         style="stop-color:#ffffff;stop-opacity:0"
         offset="0" />
      <stop
         id="stop3675"
         style="stop-color:#ffffff;stop-opacity:1"
         offset="1" />
    </linearGradient>
    <linearGradient
       x1="145.93681"
       y1="773.5517"
       x2="175.55196"
       y2="783.26154"
       id="linearGradient3722-6"
       xlink:href="#linearGradient4372-7"
       gradientUnits="userSpaceOnUse" />
    <linearGradient
       id="linearGradient3678">
      <stop
         id="stop3680"
         style="stop-color:#000000;stop-opacity:0"
         offset="0" />
      <stop
         id="stop3682"
         style="stop-color:#000000;stop-opacity:1"
         offset="1" />
    </linearGradient>
    <linearGradient
       x1="136.22697"
       y1="800.83173"
       x2="112.20677"
       y2="804.06836"
       id="linearGradient3719-2"
       xlink:href="#linearGradient4372-7"
       gradientUnits="userSpaceOnUse" />
    <linearGradient
       id="linearGradient3685">
      <stop
         id="stop3687"
         style="stop-color:#000000;stop-opacity:0"
         offset="0" />
      <stop
         id="stop3689"
         style="stop-color:#000000;stop-opacity:1"
         offset="1" />
    </linearGradient>
    <filter
       color-interpolation-filters="sRGB"
       id="filter5295-8">
      <feGaussianBlur
         id="feGaussianBlur5297-9"
         stdDeviation="5.6385285"
         inkscape:collect="always" />
    </filter>
    <filter
       color-interpolation-filters="sRGB"
       id="filter5284-6">
      <feGaussianBlur
         id="feGaussianBlur5286-0"
         stdDeviation="5.925"
         inkscape:collect="always" />
    </filter>
    <filter
       color-interpolation-filters="sRGB"
       height="1.3792491"
       y="-0.18962456"
       width="1.4404087"
       x="-0.22020435"
       id="filter3432-7">
      <feGaussianBlur
         id="feGaussianBlur3434-0"
         stdDeviation="11.161022"
         inkscape:collect="always" />
    </filter>
    <linearGradient
       x1="360.26965"
       y1="512.60236"
       x2="338.59592"
       y2="490.92865"
       id="linearGradient5493-1"
       xlink:href="#linearGradient4332-4"
       gradientUnits="userSpaceOnUse" />
    <linearGradient
       id="linearGradient3698">
      <stop
         id="stop3700"
         style="stop-color:#ffffff;stop-opacity:0"
         offset="0" />
      <stop
         id="stop3702"
         style="stop-color:#ffffff;stop-opacity:1"
         offset="1" />
    </linearGradient>
    <linearGradient
       x1="366.99615"
       y1="519.32886"
       x2="390.26273"
       y2="542.59546"
       id="linearGradient5525-0"
       xlink:href="#linearGradient4372-7"
       gradientUnits="userSpaceOnUse" />
    <linearGradient
       id="linearGradient3705">
      <stop
         id="stop3707"
         style="stop-color:#000000;stop-opacity:0"
         offset="0" />
      <stop
         id="stop3709"
         style="stop-color:#000000;stop-opacity:1"
         offset="1" />
    </linearGradient>
    <linearGradient
       x1="681.18219"
       y1="222.01881"
       x2="716.77515"
       y2="233.57816"
       id="linearGradient5474-1"
       xlink:href="#linearGradient4372-7"
       gradientUnits="userSpaceOnUse" />
    <linearGradient
       id="linearGradient3712">
      <stop
         id="stop3714"
         style="stop-color:#000000;stop-opacity:0"
         offset="0" />
      <stop
         id="stop3716"
         style="stop-color:#000000;stop-opacity:1"
         offset="1" />
    </linearGradient>
    <linearGradient
       x1="615.06274"
       y1="263.63245"
       x2="594.70856"
       y2="284.43924"
       id="linearGradient5471-3"
       xlink:href="#linearGradient4372-7"
       gradientUnits="userSpaceOnUse" />
    <linearGradient
       id="linearGradient3720">
      <stop
         id="stop3722"
         style="stop-color:#000000;stop-opacity:0"
         offset="0" />
      <stop
         id="stop3724"
         style="stop-color:#000000;stop-opacity:1"
         offset="1" />
    </linearGradient>
    <linearGradient
       x1="615.06274"
       y1="207.22287"
       x2="606.26788"
       y2="180.4052"
       id="linearGradient5468-7"
       xlink:href="#linearGradient4332-4"
       gradientUnits="userSpaceOnUse" />
    <linearGradient
       id="linearGradient3727">
      <stop
         id="stop3729"
         style="stop-color:#ffffff;stop-opacity:0"
         offset="0" />
      <stop
         id="stop3731"
         style="stop-color:#ffffff;stop-opacity:1"
         offset="1" />
    </linearGradient>
    <filter
       color-interpolation-filters="sRGB"
       id="filter3733">
      <feGaussianBlur
         id="feGaussianBlur3735"
         stdDeviation="2.1619459"
         inkscape:collect="always" />
    </filter>
  </defs>
  <sodipodi:namedview
     id="base"
     pagecolor="#ffffff"
     bordercolor="#666666"
     borderopacity="1.0"
     inkscape:pageopacity="0.0"
     inkscape:pageshadow="2"
     inkscape:zoom="1"
     inkscape:cx="-187.00642"
     inkscape:cy="122.33213"
     inkscape:document-units="px"
     inkscape:current-layer="layer1"
     showgrid="false"
     inkscape:window-width="1600"
     inkscape:window-height="876"
     inkscape:window-x="0"
     inkscape:window-y="24"
     inkscape:window-maximized="1"
     borderlayer="false"
     fit-margin-top="0"
     fit-margin-left="0"
     fit-margin-right="0"
     fit-margin-bottom="0" />
  <metadata
     id="metadata3255">
    <rdf:RDF>
      <cc:Work
         rdf:about="">
        <dc:format>image/svg+xml</dc:format>
        <dc:type
           rdf:resource="http://purl.org/dc/dcmitype/StillImage" />
        <dc:title />
      </cc:Work>
    </rdf:RDF>
  </metadata>
  <g
     inkscape:label="Layer 1"
     inkscape:groupmode="layer"
     id="layer1"
     transform="translate(-222.00642,-312.8872)">
    <g
       style="fill:#a4c639;stroke:#ffffff;stroke-width:7.16800022"
       id="g3539"
       transform="translate(207.73571,551.64032)" />
    <g
       style="fill:#ffffff"
       id="g3590"
       transform="translate(222.02142,311.64032)">
      <ellipse
         id="ellipse3537"
         ry="91.110001"
         rx="98.739998"
         cx="146.60001"
         cy="109.9"
         sodipodi:cx="146.60001"
         sodipodi:cy="109.9"
         sodipodi:rx="98.739998"
         sodipodi:ry="91.110001"
         d="m 245.34,109.9 c 0,50.31867 -44.2074,91.11 -98.73999,91.11 -54.532599,0 -98.740002,-40.79133 -98.740002,-91.11 0,-50.318662 44.207403,-91.109999 98.740002,-91.109999 54.53259,0 98.73999,40.791337 98.73999,91.109999 z" />
      <rect
         style="fill:#a4c639;stroke:#ffffff;stroke-width:7.16800022"
         id="rect3541"
         x="51.419998"
         y="85.529999"
         width="190.3"
         height="188.89999"
         rx="25.959999" />
      <g
         style="fill:#a4c639;stroke:#ffffff;stroke-width:7.16800022"
         id="b">
        <rect
           id="rect3544"
           x="177.62"
           y="-94"
           width="10.144"
           height="43"
           transform="matrix(0.87672676,0.48098877,-0.48098877,0.87672676,0,0)"
           rx="5.072" />
        <ellipse
           id="ellipse3546"
           ry="83.949997"
           cy="109.9"
           rx="91.57"
           cx="146.60001"
           sodipodi:cx="146.60001"
           sodipodi:cy="109.9"
           sodipodi:rx="91.57"
           sodipodi:ry="83.949997"
           style="stroke-opacity:0"
           d="m 238.17001,109.9 c 0,46.3643 -40.99729,83.95 -91.57,83.95 -50.572718,0 -91.570004,-37.5857 -91.570004,-83.95 0,-46.364302 40.997286,-83.949995 91.570004,-83.949995 50.57271,0 91.57,37.585693 91.57,83.949995 z" />
        <rect
           x="3.569"
           y="109.6"
           width="47.84"
           height="132.89999"
           rx="23.92"
           id="c" />
        <use
           id="use3549"
           x="85.026001"
           y="96.970001"
           xlink:href="#c"
           width="1"
           height="1" />
        <rect
           id="rect3551"
           x="54.990002"
           y="89.099998"
           width="183.2"
           height="181.8"
           rx="22.120001"
           style="stroke-opacity:0" />
        <line
           id="line3553"
           y2="113.5"
           y1="113.5"
           x2="245"
           x1="48" />
      </g>
      <use
         style="fill:#a4c639;stroke:#ffffff;stroke-width:7.16800022"
         id="use3555"
         transform="matrix(-1,0,0,1,293.1,0)"
         xlink:href="#b"
         x="0"
         y="0"
         width="1"
         height="1" />
      <circle
         id="circle3557"
         r="7.6700001"
         cx="188.24001"
         cy="69.077003"
         sodipodi:cx="188.24001"
         sodipodi:cy="69.077003"
         sodipodi:rx="7.6700001"
         sodipodi:ry="7.6700001"
         d="m 195.91001,69.077003 c 0,4.236025 -3.43398,7.670001 -7.67,7.670001 -4.23603,0 -7.67,-3.433976 -7.67,-7.670001 0,-4.236024 3.43397,-7.67 7.67,-7.67 4.23602,0 7.67,3.433976 7.67,7.67 z" />
      <circle
         id="circle3559"
         r="7.6700001"
         cx="104.88"
         cy="69.077003"
         sodipodi:cx="104.88"
         sodipodi:cy="69.077003"
         sodipodi:rx="7.6700001"
         sodipodi:ry="7.6700001"
         d="m 112.55,69.077003 c 0,4.236025 -3.43398,7.670001 -7.67,7.670001 -4.23603,0 -7.670003,-3.433976 -7.670003,-7.670001 0,-4.236024 3.433973,-7.67 7.670003,-7.67 4.23602,0 7.67,3.433976 7.67,7.67 z" />
    </g>
    <g
       transform="matrix(0.22202084,0,0,0.18402493,283.70024,408.88741)"
       id="layer2"
       style="display:inline">
      <path
         inkscape:connector-curvature="0"
         d="M 13.697973,752.79104 140.97718,709.85956 585.94938,252.00792 542.00774,208.31882 725.09792,145.18429 666.50902,330.29474 622.44112,286.73191 182.02519,739.44413 136.84661,875.15841 120.77519,765.51556 13.697973,752.79104 z"
         id="path4311"
         style="fill:#000000;fill-opacity:1;fill-rule:evenodd;stroke:none;filter:url(#filter3758-5)" />
      <path
         inkscape:connector-curvature="0"
         d="M 13.697973,752.79104 140.97718,709.85956 585.94938,252.00792 542.00774,208.31882 725.09792,145.18429 666.50902,330.29474 622.44112,286.73191 182.02519,739.44413 136.84661,875.15841 120.77519,765.51556 13.697973,752.79104 z"
         id="path3581"
         style="fill:#2eac0b;fill-opacity:1;fill-rule:evenodd;stroke:none" />
      <path
         inkscape:connector-curvature="0"
         d="M 13.697973,752.79104 140.97718,709.85956 585.94938,252.00792 542.00774,208.31882 725.09792,145.18429 666.50902,330.29474 622.44112,286.73191 182.02519,739.44413 136.84661,875.15841 120.77519,765.51556 13.697973,752.79104 z"
         id="path4687"
         style="fill:url(#linearGradient3746-7);fill-opacity:1;fill-rule:evenodd;stroke:none" />
      <path
         inkscape:connector-curvature="0"
         d="M 13.697973,752.79104 140.97718,709.85956 585.94938,252.00792 542.00774,208.31882 725.09792,145.18429 666.50902,330.29474 622.44112,286.73191 182.02519,739.44413 136.84661,875.15841 120.77519,765.51556 13.697973,752.79104 z"
         id="path4677"
         style="fill:url(#linearGradient3743-6);fill-opacity:1;fill-rule:evenodd;stroke:none" />
      <path
         inkscape:connector-curvature="0"
         d="m 368.5625,210.9375 c -140.27694,0 -242.84375,111.30962 -242.84375,280 0,221.21831 149.92821,287.12499 250,287.125 16.94828,0 34.64964,-2.11511 52.4375,-6.5 2.3725,53.62111 9.47855,139.72749 107.09375,134.3125 106.98813,-5.96109 86.25,-126.28125 86.25,-126.28125 l -41.21875,0 c 0,2e-5 0.5468,67.34546 -23.4375,64.125 C 532.98833,841.87034 518.86927,778.17471 506.03125,736.4375 569.58493,692.65378 620,612.68165 620,488.78125 620,319.73554 517.84823,210.9375 368.5625,210.9375 z m 6.09375,37.3125 c 63.92857,0 143.21426,48.04507 142.5,235.1875 C 516.7849,580.35991 507.27483,642.37293 487.5,681.0625 469.68361,623.52087 449.21083,560.04584 360.125,559.90625 267.63526,559.76083 256.27763,638.5889 256.0625,660.6875 c -0.0935,9.60404 1.28712,18.03773 3.78125,25.46875 -21.45603,-36.45534 -31.5625,-95.29432 -31.5625,-187.375 0,-211.42856 77.44644,-250.53125 146.375,-250.53125 z m -17.0625,352.25 c 66.1867,-0.16636 66.36841,87.21111 68.4375,132.875 -15.01287,4.3775 -31.98633,6.12499 -51.03125,6.125 -7.07173,0 -13.84807,-0.23639 -20.375,-0.71875 -21.03114,-3.57459 -50.77253,-17.70587 -52.21875,-69 -0.44691,-15.77933 9.20701,-69.16624 55.1875,-69.28125 z"
         id="path4305"
         style="fill:#000000;fill-opacity:1;fill-rule:evenodd;stroke:none;filter:url(#filter4307-8)" />
      <path
         inkscape:connector-curvature="0"
         d="m 177.14286,202.36218 a 2.14286,0 0 0 0 -4.28572,0 2.14286,0 180 0 0 4.28572,0 z"
         id="path2399"
         style="fill:#000000;fill-opacity:0.31372549;fill-rule:nonzero;stroke:#000000;stroke-width:0;stroke-linecap:round;stroke-linejoin:round;stroke-miterlimit:4;stroke-opacity:0;stroke-dasharray:none" />
      <path
         inkscape:connector-curvature="0"
         d="m 585.94938,252.00792 -43.94164,-43.6891 183.09018,-63.13453 -58.5889,185.11045 -44.0679,-43.56283 -36.49174,-34.72399 z"
         id="path4691"
         style="fill:#2eac0b;fill-opacity:1;fill-rule:evenodd;stroke:none" />
      <path
         inkscape:connector-curvature="0"
         d="m 585.94938,252.00792 -43.94164,-43.6891 183.09018,-63.13453 -58.5889,185.11045 -44.0679,-43.56283 -36.49174,-34.72399 z"
         id="path4693"
         style="fill:url(#linearGradient3739-8);fill-opacity:1;fill-rule:evenodd;stroke:none" />
      <path
         inkscape:connector-curvature="0"
         d="m 585.94938,252.00792 -43.94164,-43.6891 183.09018,-63.13453 -58.5889,185.11045 -44.0679,-43.56283 -36.49174,-34.72399 z"
         id="path4703"
         style="fill:url(#linearGradient3736-2);fill-opacity:1;fill-rule:evenodd;stroke:none" />
      <path
         inkscape:connector-curvature="0"
         d="m 585.94938,252.00792 -43.94164,-43.6891 183.09018,-63.13453 -58.5889,185.11045 -44.0679,-43.56283 -36.49174,-34.72399 z"
         id="path4707"
         style="fill:url(#linearGradient3733-6);fill-opacity:1;fill-rule:evenodd;stroke:none" />
      <path
         inkscape:connector-curvature="0"
         d="m 583.63751,227.03975 8.42937,57.94238 60.89089,-0.0997 -69.32026,-57.84267 z"
         id="path4711"
         style="fill:#2eac0b;fill-opacity:1;fill-rule:evenodd;stroke:none;filter:url(#filter4769-0)" />
      <path
         inkscape:connector-curvature="0"
         d="M 13.697973,752.79104 140.97718,709.85956 182.02519,739.44413 136.84661,875.15841 120.77519,765.51556 13.697973,752.79104 z"
         id="path4773"
         style="fill:#2eac0b;fill-opacity:1;fill-rule:evenodd;stroke:none" />
      <path
         inkscape:connector-curvature="0"
         d="m 13.697973,752.79104 127.279207,-42.93148 19.77883,13.4015 -39.98082,42.2545 -107.077217,-12.72452 z"
         id="path4793"
         style="fill:url(#linearGradient3728-6);fill-opacity:1;fill-rule:evenodd;stroke:none" />
      <path
         inkscape:connector-curvature="0"
         d="M 13.697973,752.79104 140.97718,709.85956 182.02519,739.44413 136.84661,875.15841 120.77519,765.51556 13.697973,752.79104 z"
         id="path4775"
         style="fill:url(#linearGradient3725-4);fill-opacity:1;fill-rule:evenodd;stroke:none" />
      <path
         inkscape:connector-curvature="0"
         d="M 13.697973,752.79104 140.97718,709.85956 182.02519,739.44413 136.84661,875.15841 120.77519,765.51556 13.697973,752.79104 z"
         id="path4785"
         style="fill:url(#linearGradient3722-6);fill-opacity:1;fill-rule:evenodd;stroke:none" />
      <path
         inkscape:connector-curvature="0"
         d="m 159.9345,723.73077 22.09069,15.71336 -45.17858,135.71428 -16.07142,-109.64285 39.15931,-41.78479 z"
         id="path4789"
         style="fill:url(#linearGradient3719-2);fill-opacity:1;fill-rule:evenodd;stroke:none" />
      <path
         inkscape:connector-curvature="0"
         d="m 368.5625,210.9375 c -140.27694,0 -242.84375,111.30962 -242.84375,280 0,221.21831 149.92821,287.12499 250,287.125 16.94828,0 34.64964,-2.11511 52.4375,-6.5 2.3725,53.62111 9.47855,139.72749 107.09375,134.3125 106.98813,-5.96109 86.25,-126.28125 86.25,-126.28125 l -41.21875,0 c 0,2e-5 0.5468,67.34546 -23.4375,64.125 C 532.98833,841.87034 518.86927,778.17471 506.03125,736.4375 569.58493,692.65378 620,612.68165 620,488.78125 620,319.73554 517.84823,210.9375 368.5625,210.9375 z m 6.09375,37.3125 c 63.92857,0 143.21426,48.04507 142.5,235.1875 C 516.7849,580.35991 507.27483,642.37293 487.5,681.0625 469.68361,623.52087 449.21083,560.04584 360.125,559.90625 267.63526,559.76083 256.27763,638.5889 256.0625,660.6875 c -0.0935,9.60404 1.28712,18.03773 3.78125,25.46875 -21.45603,-36.45534 -31.5625,-95.29432 -31.5625,-187.375 0,-211.42856 77.44644,-250.53125 146.375,-250.53125 z m -17.0625,352.25 c 66.1867,-0.16636 66.36841,87.21111 68.4375,132.875 -15.01287,4.3775 -31.98633,6.12499 -51.03125,6.125 -7.07173,0 -13.84807,-0.23639 -20.375,-0.71875 -21.03114,-3.57459 -50.77253,-17.70587 -52.21875,-69 -0.44691,-15.77933 9.20701,-69.16624 55.1875,-69.28125 z"
         id="path3221"
         style="fill:#d1db2d;fill-opacity:1;fill-rule:evenodd;stroke:#4e4e4e;stroke-width:0;stroke-linecap:butt;stroke-linejoin:miter;stroke-miterlimit:4;stroke-opacity:1;stroke-dasharray:none" />
      <path
         inkscape:connector-curvature="0"
         d="m 367.59375,237.9375 c -68.92856,0 -146.375,39.10268 -146.375,250.53125 0,92.08068 10.10647,150.91968 31.5625,187.375 -2.2562,-6.72212 -3.58312,-14.26276 -3.75,-22.75 -0.003,-0.01 0.003,-0.0217 0,-0.0312 -9.95224,-35.40704 -14.75,-82.99283 -14.75,-146.28125 0,-211.42856 77.44644,-250.53125 146.375,-250.53125 30.87369,0 65.32851,11.20792 92.625,43.875 -28.71789,-46.8947 -69.63392,-62.1875 -105.6875,-62.1875 z M 567.28125,307.5 c 29.23269,45.25525 45.65624,103.26999 45.65625,170.96875 0,123.9004 -50.41506,203.87255 -113.96875,247.65625 11.03961,35.89046 23.00188,88.01811 41.3125,103.09375 C 528.885,806.47262 520.20583,771.01356 512.03125,744.4375 575.58493,700.65378 626,620.68165 626,496.78125 626,419.56535 604.66451,354.9483 567.28125,307.5 z m -216.75,282.6875 c -45.98049,0.11501 -55.6344,53.50194 -55.1875,69.28125 0.76534,27.14492 9.43319,43.88337 20.5625,54.15625 -4.26529,-9.26692 -7.08122,-20.99075 -7.5,-35.84375 -0.44691,-15.77933 9.20701,-69.16624 55.1875,-69.28125 16.79334,-0.0422 29.31489,5.56937 38.71875,14.6875 -9.72359,-19.37747 -25.55975,-33.0659 -51.78125,-33 z m 103.15625,13.375 c 12.11009,20.42663 21.03974,61.37289 28.13712,84.29532 1.46399,-2.86431 5.60981,-11.88617 4.1875,-21.94646 -7.45977,-21.22198 -18.0586,-45.91448 -32.32462,-62.34886 z m -276.09375,73.375 c 52.24216,81.03399 138.80145,109.12499 204.125,109.125 13.18029,0 25.89132,-1.27514 39.669,-3.90625 4.03598,-7.29597 7.39388,-11.1175 6.17923,-20.44388 -17.78786,4.38489 -41.96244,6.03765 -58.91073,6.03763 -60.1341,-10e-6 -138.2729,-23.81628 -191.0625,-90.8125 z m 438.375,110.65625 c 0.93225,33.90023 -7.05498,103.47092 -87.78125,107.96875 -35.92395,1.9928 -59.59838,-8.41433 -75.28125,-25.03125 14.46561,26.68128 40.54076,45.99552 88.34375,43.34375 106.98813,-5.96109 86.25,-126.28125 86.25,-126.28125 l -11.53125,0 z"
         id="path5290"
         style="opacity:0.6;fill:#000000;fill-opacity:1;fill-rule:evenodd;stroke:#4e4e4e;stroke-width:0;stroke-linecap:butt;stroke-linejoin:miter;stroke-miterlimit:4;stroke-opacity:1;stroke-dasharray:none;filter:url(#filter5295-8)" />
      <path
         inkscape:connector-curvature="0"
         d="m 364.5625,210.9375 c -140.27694,0 -242.84375,111.30962 -242.84375,280 0,145.17452 64.57641,223.45684 137.25,260.125 C 193.36671,711.15788 138.375,634.16099 138.375,500.1875 c 0,-168.69038 102.5668,-280 242.84375,-280 43.26954,0 82.55202,9.15207 116.5625,26.25 -37.59088,-23.03587 -82.70119,-35.5 -133.21875,-35.5 z m 72.0625,57 c 42.18255,28.24213 78.39289,92.55952 77.91837,216.88712 -0.31854,83.13772 -11.06535,154.4487 -25.54274,193.52746 3.17435,9.03768 1.89182,9.8833 4.68239,18.89602 19.77483,-38.68957 35.75812,-107.63819 36.12948,-204.5606 0.5357,-140.35682 -43.95202,-202.46502 -93.1875,-224.75 z m -80.5,291.96875 c -77.24506,-0.12145 -94.64672,61.29004 -99.48214,92.28573 0.25317,21.3105 2.44073,27.9966 4.2978,33.04205 0.28011,-4.65678 -0.0729,-14.88375 2.69198,-24.08163 6.22599,-20.71148 16.65886,-92.1416 109.14861,-91.99615 21.08183,0.033 38.29144,3.63495 52.5625,9.84375 -16.96357,-11.78811 -39.18778,-19.04669 -69.21875,-19.09375 z m 33.3125,52.6875 c 30.50398,25.54138 30.99784,85.56017 32.59375,120.78125 -15.01287,4.3775 -31.98633,6.12499 -51.03125,6.125 -7.07173,0 -13.84807,-0.23639 -20.375,-0.71875 -3.858,-0.65573 -8.00297,-1.68829 -12.21875,-3.21875 9.28505,7.46938 19.88189,10.94021 28.875,12.46875 6.52693,0.48236 13.30326,0.71872 20.375,0.71875 19.04492,-10e-6 36.01837,-1.74753 51.03125,-6.125 -1.84594,-40.73898 -2.19899,-114.67422 -49.25,-130.03125 z m 184.53188,162.37626 c 0,2e-5 0.51907,67.98513 -18.78188,68.84249 4.36306,5.41423 9.11144,8.75325 14.3125,9.15625 23.9843,3.22046 23.43749,-64.12501 23.4375,-64.125 l 25.16263,0.46237 c -0.46822,-5.75107 2.63648,-12.48661 2.63648,-12.48661 l -46.76723,-1.8495 z M 440.8125,780.8125 c -5.33972,1.3163 -10.6939,2.4011 -16,3.3125 2.5818,41.88185 11.01938,95.91839 57.96875,114.96875 C 446.49882,872.40942 442.4826,818.5587 440.8125,780.8125 z"
         id="path5233"
         style="opacity:0.6;fill:#ffffff;fill-opacity:1;fill-rule:evenodd;stroke:#4e4e4e;stroke-width:0;stroke-linecap:butt;stroke-linejoin:miter;stroke-miterlimit:4;stroke-opacity:1;stroke-dasharray:none;filter:url(#filter5284-6)" />
      <path
         inkscape:connector-curvature="0"
         d="m 551.56037,288.93984 29.75222,39.2337 -69.96676,72.90929 -14.71263,-55.90803 54.92717,-56.23496 z"
         id="path3370"
         style="fill:#000000;fill-opacity:1;fill-rule:evenodd;stroke:#000000;stroke-width:1px;stroke-linecap:butt;stroke-linejoin:miter;stroke-opacity:1;filter:url(#filter3432-7)" />
      <path
         inkscape:connector-curvature="0"
         d="M 725.09375,145.1875 542,208.3125 585.9375,252 391.21875,452.375 l 70.0625,0 L 622.4375,286.71875 666.5,330.28125 725.09375,145.1875 z"
         id="path5409"
         style="fill:#2eac0b;fill-opacity:1;fill-rule:evenodd;stroke:none" />
      <path
         inkscape:connector-curvature="0"
         d="M 725.09375,145.1875 542,208.3125 585.9375,252 391.21875,452.375 l 70.0625,0 L 622.4375,286.71875 666.5,330.28125 725.09375,145.1875 z"
         id="path5413"
         style="fill:url(#linearGradient5493-1);fill-opacity:1;fill-rule:evenodd;stroke:none" />
      <path
         inkscape:connector-curvature="0"
         d="M 725.09375,145.1875 542,208.3125 585.9375,252 391.21875,452.375 l 70.0625,0 L 622.4375,286.71875 666.5,330.28125 725.09375,145.1875 z"
         id="path5411"
         style="fill:url(#linearGradient5525-0);fill-opacity:1;fill-rule:evenodd;stroke:none" />
      <path
         inkscape:connector-curvature="0"
         d="m 585.94938,252.00792 -43.94164,-43.6891 183.09018,-63.13453 -58.5889,185.11045 -44.0679,-43.56283 -36.49174,-34.72399 z"
         id="path5415"
         style="fill:#2eac0b;fill-opacity:1;fill-rule:evenodd;stroke:none" />
      <path
         inkscape:connector-curvature="0"
         d="m 585.94938,252.00792 -43.94164,-43.6891 183.09018,-63.13453 -58.5889,185.11045 -44.0679,-43.56283 -36.49174,-34.72399 z"
         id="path5417"
         style="fill:url(#linearGradient5474-1);fill-opacity:1;fill-rule:evenodd;stroke:none" />
      <path
         inkscape:connector-curvature="0"
         d="m 585.94938,252.00792 -43.94164,-43.6891 183.09018,-63.13453 -58.5889,185.11045 -44.0679,-43.56283 -36.49174,-34.72399 z"
         id="path5419"
         style="fill:url(#linearGradient5471-3);fill-opacity:1;fill-rule:evenodd;stroke:none" />
      <path
         inkscape:connector-curvature="0"
         d="m 585.94938,252.00792 -43.94164,-43.6891 183.09018,-63.13453 -58.5889,185.11045 -44.0679,-43.56283 -36.49174,-34.72399 z"
         id="path5421"
         style="fill:url(#linearGradient5468-7);fill-opacity:1;fill-rule:evenodd;stroke:none" />
      <path
         inkscape:connector-curvature="0"
         d="m 583.63751,227.03975 8.42937,57.94238 60.89089,-0.0997 -69.32026,-57.84267 z"
         id="path5423"
         style="fill:#2eac0b;fill-opacity:1;fill-rule:evenodd;stroke:none;filter:url(#filter4769-0)" />
    </g>
    <text
       xml:space="preserve"
       style="font-size:48px;font-style:normal;font-variant:normal;font-weight:bold;font-stretch:normal;text-align:start;line-height:125%;letter-spacing:0px;word-spacing:0px;writing-mode:lr-tb;text-anchor:start;fill:#d40000;fill-opacity:1;stroke:none;font-family:Ubuntu;-inkscape-font-specification:Ubuntu Bold"
       x="470.00641"
       y="378.69434"
       id="text3165"
       sodipodi:linespacing="125%"><tspan
         sodipodi:role="line"
         id="tspan3167"
         x="470.00641"
         y="378.69434">1</tspan></text>
  </g>
</svg>
